<?xml version="1.0" encoding="utf-8"?>
<svg viewBox="0 0 256 85" width="256" height="85" xmlns="http://www.w3.org/2000/svg">
  <defs>
    <clipPath id="a">
      <path d="M 10.886719 137.875 L 84.386719 137.875 L 84.386719 211.375 L 10.886719 211.375 Z M 10.886719 137.875"/>
    </clipPath>
  </defs>
  <g clip-path="url(#a)" transform="matrix(1, 0, 0, 1, -7.541133, -128.884827)">
    <path d="M 84.359375 171.796875 C 84.363281 171.773438 84.355469 171.746094 84.347656 171.722656 C 84.347656 171.71875 84.347656 171.71875 84.347656 171.71875 L 77.023438 152.550781 C 77.023438 152.546875 77.019531 152.546875 77.019531 152.542969 C 77.003906 152.515625 76.988281 152.488281 76.964844 152.46875 L 60.855469 139.699219 C 60.832031 139.679688 60.800781 139.664062 60.765625 139.660156 C 60.761719 139.660156 60.761719 139.660156 60.757812 139.660156 L 47.609375 137.875 C 47.585938 137.875 47.558594 137.875 47.53125 137.882812 L 41.265625 139.65625 L 41.085938 139.65625 C 41.050781 139.65625 41.019531 139.667969 40.988281 139.683594 L 40.828125 139.78125 L 25.40625 144.148438 C 25.398438 144.148438 25.394531 144.15625 25.390625 144.15625 C 25.371094 144.164062 25.351562 144.175781 25.335938 144.1875 C 25.328125 144.195312 25.320312 144.199219 25.316406 144.207031 C 25.3125 144.210938 25.308594 144.210938 25.304688 144.214844 L 11.796875 161.6875 C 11.792969 161.695312 11.792969 161.699219 11.789062 161.707031 C 11.785156 161.714844 11.777344 161.71875 11.773438 161.730469 C 11.773438 161.734375 11.773438 161.738281 11.769531 161.746094 C 11.765625 161.753906 11.765625 161.765625 11.761719 161.777344 C 11.761719 161.78125 11.757812 161.789062 11.757812 161.796875 L 10.90625 177.160156 C 10.90625 177.175781 10.90625 177.1875 10.910156 177.203125 L 12.15625 184.972656 C 12.15625 184.984375 12.160156 184.992188 12.164062 185.003906 C 12.167969 185.007812 12.167969 185.015625 12.167969 185.023438 C 12.171875 185.023438 12.171875 185.023438 12.171875 185.027344 C 12.171875 185.027344 12.171875 185.03125 12.175781 185.03125 L 18.460938 196.96875 C 18.472656 196.988281 18.488281 197.007812 18.503906 197.023438 L 25.882812 203.519531 C 25.894531 203.535156 25.90625 203.546875 25.921875 203.554688 L 34.449219 209.28125 C 34.472656 209.296875 34.5 209.308594 34.527344 209.3125 L 47.910156 211.386719 C 47.910156 211.386719 47.910156 211.386719 47.914062 211.386719 C 47.921875 211.390625 47.933594 211.390625 47.941406 211.390625 C 47.957031 211.390625 47.96875 211.386719 47.980469 211.386719 C 47.980469 211.386719 47.984375 211.386719 47.984375 211.386719 C 47.984375 211.386719 47.984375 211.386719 47.984375 211.382812 C 47.984375 211.382812 47.988281 211.382812 47.988281 211.382812 L 47.992188 211.382812 C 47.996094 211.382812 47.996094 211.382812 47.996094 211.382812 L 69.859375 205.015625 C 69.867188 205.011719 69.875 205.003906 69.878906 205 C 69.902344 204.992188 69.917969 204.980469 69.933594 204.960938 C 69.941406 204.957031 69.953125 204.953125 69.960938 204.945312 L 83.261719 187.464844 C 83.28125 187.4375 83.292969 187.40625 83.296875 187.371094 C 83.296875 187.367188 83.300781 187.367188 83.300781 187.363281 Z M 82.925781 187.195312 L 77.171875 188.644531 L 83.898438 172.90625 Z M 59.582031 184.964844 L 38.382812 177.53125 L 54.371094 166.058594 Z M 54.371094 165.441406 L 38.429688 155.046875 L 59.15625 149.140625 Z M 54.144531 165.75 L 38.164062 177.21875 L 38.164062 155.335938 Z M 37.777344 177.285156 L 19.640625 168.414062 L 37.777344 155.355469 Z M 41.707031 198.550781 L 24.417969 188.898438 L 37.839844 177.945312 Z M 38.222656 177.882812 L 59.464844 185.332031 L 42.101562 198.578125 Z M 59.699219 185.636719 L 60.816406 201.476562 L 42.449219 198.792969 Z M 59.945312 184.832031 L 54.742188 165.960938 L 72.429688 167.722656 Z M 72.675781 168.039062 L 76.601562 188.675781 L 60.195312 185.144531 Z M 76.914062 188.269531 L 73.035156 167.863281 L 83.910156 171.894531 Z M 72.703125 167.125 L 59.886719 149.152344 L 76.605469 152.765625 Z M 72.382812 167.332031 L 54.734375 165.574219 L 59.515625 149.292969 Z M 38.222656 154.707031 L 41.226562 140.128906 L 58.910156 148.8125 Z M 37.824219 154.730469 L 24.261719 150.210938 L 40.808594 140.238281 Z M 37.554688 155.042969 L 19.582031 167.980469 L 23.941406 150.507812 Z M 19.160156 168.085938 L 12.230469 161.800781 L 23.457031 150.871094 Z M 23.632812 150.160156 L 13.773438 159.761719 L 25.007812 145.230469 Z M 19.039062 168.496094 L 12.523438 184.023438 L 12.148438 162.246094 Z M 19.21875 169.066406 L 23.808594 188.632812 L 12.601562 184.828125 Z M 19.550781 168.796875 L 37.617188 177.632812 L 24.195312 188.582031 Z M 41.472656 198.859375 L 26.1875 203.148438 L 24.320312 189.28125 Z M 41.867188 199.148438 L 47.5625 210.859375 L 26.660156 203.414062 Z M 48.015625 210.90625 L 42.300781 199.160156 L 60.53125 201.820312 Z M 61.191406 201.320312 L 60.074219 185.511719 L 76.410156 189.03125 Z M 76.347656 189.574219 L 69.703125 204.589844 L 61.414062 201.632812 Z M 76.980469 189.089844 L 82.625 187.667969 L 70.644531 203.410156 Z M 73.015625 167.445312 L 76.875 153.238281 L 83.835938 171.457031 Z M 60.875 140.207031 L 76.078125 152.257812 L 59.65625 148.707031 Z M 47.597656 138.261719 L 57.890625 139.65625 L 42.675781 139.65625 Z M 60.511719 140.039062 L 59.289062 148.570312 L 41.914062 140.039062 Z M 24.121094 149.84375 L 25.613281 144.488281 L 39.578125 140.535156 Z M 11.292969 177.160156 L 11.847656 167.128906 L 12.105469 182.234375 Z M 18.785156 196.757812 L 13.683594 187.074219 L 24.785156 202.046875 Z M 12.867188 185.324219 L 23.902344 189.070312 L 25.734375 202.679688 Z M 27.398438 204.085938 L 45.964844 210.695312 L 34.628906 208.941406 Z M 61.058594 201.914062 L 69.183594 204.8125 L 48.949219 210.703125 Z M 61.058594 201.914062"/>
  </g>
  <g fill="#231F20" transform="matrix(1, 0, 0, 1, -17.138939, -130.255936)">
    <g>
      <g>
        <path d="M 6.484375 0.28125 C 5.316406 0.28125 4.1875 0.140625 3.09375 -0.140625 C 2 -0.429688 1.113281 -0.816406 0.4375 -1.296875 L 1.765625 -4.28125 C 2.410156 -3.863281 3.15625 -3.523438 4 -3.265625 C 4.84375 -3.003906 5.675781 -2.875 6.5 -2.875 C 8.0625 -2.875 8.84375 -3.265625 8.84375 -4.046875 C 8.84375 -4.453125 8.617188 -4.753906 8.171875 -4.953125 C 7.734375 -5.148438 7.019531 -5.359375 6.03125 -5.578125 C 4.945312 -5.804688 4.039062 -6.054688 3.3125 -6.328125 C 2.59375 -6.597656 1.972656 -7.023438 1.453125 -7.609375 C 0.929688 -8.203125 0.671875 -8.992188 0.671875 -9.984375 C 0.671875 -10.859375 0.910156 -11.648438 1.390625 -12.359375 C 1.867188 -13.066406 2.582031 -13.625 3.53125 -14.03125 C 4.488281 -14.4375 5.65625 -14.640625 7.03125 -14.640625 C 7.976562 -14.640625 8.910156 -14.535156 9.828125 -14.328125 C 10.742188 -14.117188 11.550781 -13.804688 12.25 -13.390625 L 11 -10.375 C 9.625 -11.113281 8.296875 -11.484375 7.015625 -11.484375 C 6.210938 -11.484375 5.625 -11.363281 5.25 -11.125 C 4.882812 -10.882812 4.703125 -10.578125 4.703125 -10.203125 C 4.703125 -9.816406 4.921875 -9.523438 5.359375 -9.328125 C 5.796875 -9.140625 6.5 -8.941406 7.46875 -8.734375 C 8.5625 -8.503906 9.46875 -8.253906 10.1875 -7.984375 C 10.90625 -7.722656 11.523438 -7.300781 12.046875 -6.71875 C 12.578125 -6.132812 12.84375 -5.34375 12.84375 -4.34375 C 12.84375 -3.488281 12.601562 -2.710938 12.125 -2.015625 C 11.644531 -1.316406 10.925781 -0.757812 9.96875 -0.34375 C 9.007812 0.0703125 7.847656 0.28125 6.484375 0.28125 Z M 6.484375 0.28125" transform="translate(110.026 176.171)"/>
      </g>
    </g>
  </g>
  <g fill="#231F20" transform="matrix(1, 0, 0, 1, -17.138939, -130.255936)">
    <g>
      <g>
        <path d="M 8.671875 0.28125 C 7.160156 0.28125 5.796875 -0.0351562 4.578125 -0.671875 C 3.367188 -1.316406 2.421875 -2.207031 1.734375 -3.34375 C 1.046875 -4.476562 0.703125 -5.757812 0.703125 -7.1875 C 0.703125 -8.601562 1.046875 -9.878906 1.734375 -11.015625 C 2.421875 -12.148438 3.367188 -13.035156 4.578125 -13.671875 C 5.796875 -14.316406 7.160156 -14.640625 8.671875 -14.640625 C 10.191406 -14.640625 11.554688 -14.316406 12.765625 -13.671875 C 13.984375 -13.035156 14.9375 -12.148438 15.625 -11.015625 C 16.3125 -9.878906 16.65625 -8.601562 16.65625 -7.1875 C 16.65625 -5.757812 16.3125 -4.476562 15.625 -3.34375 C 14.9375 -2.207031 13.984375 -1.316406 12.765625 -0.671875 C 11.554688 -0.0351562 10.191406 0.28125 8.671875 0.28125 Z M 8.671875 -3.078125 C 9.398438 -3.078125 10.054688 -3.25 10.640625 -3.59375 C 11.234375 -3.9375 11.703125 -4.414062 12.046875 -5.03125 C 12.390625 -5.65625 12.5625 -6.375 12.5625 -7.1875 C 12.5625 -7.988281 12.390625 -8.703125 12.046875 -9.328125 C 11.703125 -9.953125 11.234375 -10.429688 10.640625 -10.765625 C 10.054688 -11.109375 9.398438 -11.28125 8.671875 -11.28125 C 7.953125 -11.28125 7.296875 -11.109375 6.703125 -10.765625 C 6.117188 -10.429688 5.65625 -9.953125 5.3125 -9.328125 C 4.96875 -8.703125 4.796875 -7.988281 4.796875 -7.1875 C 4.796875 -6.375 4.96875 -5.65625 5.3125 -5.03125 C 5.65625 -4.414062 6.117188 -3.9375 6.703125 -3.59375 C 7.296875 -3.25 7.953125 -3.078125 8.671875 -3.078125 Z M 8.671875 -3.078125" transform="translate(127.403 176.171)"/>
      </g>
    </g>
  </g>
  <g fill="#231F20" transform="matrix(1, 0, 0, 1, -17.138939, -130.255936)">
    <g>
      <g>
        <path d="M 5.5 -11.21875 L 5.5 -8.0625 L 11.84375 -8.0625 L 11.84375 -4.921875 L 5.5 -4.921875 L 5.5 0 L 1.4375 0 L 1.4375 -14.359375 L 12.703125 -14.359375 L 12.703125 -11.21875 Z M 5.5 -11.21875" transform="translate(148.863 176.171)"/>
      </g>
    </g>
  </g>
  <g fill="#231F20" transform="matrix(1, 0, 0, 1, -17.138939, -130.255936)">
    <g>
      <g>
        <path d="M 4.5 -11.140625 L 0.078125 -11.140625 L 0.078125 -14.359375 L 12.953125 -14.359375 L 12.953125 -11.140625 L 8.5625 -11.140625 L 8.5625 0 L 4.5 0 Z M 4.5 -11.140625" transform="translate(166.138 176.171)"/>
      </g>
    </g>
  </g>
  <g fill="#231F20" transform="matrix(1, 0, 0, 1, -17.138939, -130.255936)">
    <g>
      <g>
        <path d="M 23.96875 -14.359375 L 19.3125 0 L 14.953125 0 L 12.203125 -8.734375 L 9.328125 0 L 4.984375 0 L 0.328125 -14.359375 L 4.515625 -14.359375 L 7.40625 -5.1875 L 10.4375 -14.359375 L 14.171875 -14.359375 L 17.0625 -5.109375 L 20.078125 -14.359375 Z M 23.96875 -14.359375" transform="translate(183.269 176.171)"/>
      </g>
    </g>
  </g>
  <g fill="#231F20" transform="matrix(1, 0, 0, 1, -17.138939, -130.255936)">
    <g>
      <g>
        <path d="M 11.0625 -2.796875 L 4.984375 -2.796875 L 3.859375 0 L -0.28125 0 L 6.046875 -14.359375 L 10.046875 -14.359375 L 16.40625 0 L 12.1875 0 Z M 9.875 -5.78125 L 8.015625 -10.375 L 6.171875 -5.78125 Z M 9.875 -5.78125" transform="translate(211.663 176.171)"/>
      </g>
    </g>
  </g>
  <g fill="#231F20" transform="matrix(1, 0, 0, 1, -17.138939, -130.255936)">
    <g>
      <g>
        <path d="M 7.71875 -3.8125 L 5.5 -3.8125 L 5.5 0 L 1.4375 0 L 1.4375 -14.359375 L 8 -14.359375 C 9.300781 -14.359375 10.429688 -14.140625 11.390625 -13.703125 C 12.347656 -13.273438 13.082031 -12.660156 13.59375 -11.859375 C 14.113281 -11.066406 14.375 -10.128906 14.375 -9.046875 C 14.375 -8.003906 14.128906 -7.097656 13.640625 -6.328125 C 13.160156 -5.554688 12.472656 -4.953125 11.578125 -4.515625 L 14.671875 0 L 10.3125 0 Z M 10.28125 -9.046875 C 10.28125 -9.710938 10.066406 -10.226562 9.640625 -10.59375 C 9.210938 -10.96875 8.582031 -11.15625 7.75 -11.15625 L 5.5 -11.15625 L 5.5 -6.953125 L 7.75 -6.953125 C 8.582031 -6.953125 9.210938 -7.132812 9.640625 -7.5 C 10.066406 -7.863281 10.28125 -8.378906 10.28125 -9.046875 Z M 10.28125 -9.046875" transform="translate(231.892 176.171)"/>
      </g>
    </g>
  </g>
  <g fill="#231F20" transform="matrix(1, 0, 0, 1, -17.138939, -130.255936)">
    <g>
      <g>
        <path d="M 12.96875 -3.140625 L 12.96875 0 L 1.4375 0 L 1.4375 -14.359375 L 12.703125 -14.359375 L 12.703125 -11.21875 L 5.453125 -11.21875 L 5.453125 -8.796875 L 11.84375 -8.796875 L 11.84375 -5.765625 L 5.453125 -5.765625 L 5.453125 -3.140625 Z M 12.96875 -3.140625" transform="translate(251.177 176.171)"/>
      </g>
    </g>
  </g>
  <g fill="#008037" transform="matrix(1, 0, 0, 1, -17.138939, -130.255936)">
    <g>
      <g>
        <path d="M 2.90625 0.09375 C 2.394531 0.09375 1.90625 0.0234375 1.4375 -0.109375 C 0.96875 -0.253906 0.597656 -0.445312 0.328125 -0.6875 L 0.75 -1.625 C 1.007812 -1.414062 1.332031 -1.242188 1.71875 -1.109375 C 2.113281 -0.984375 2.507812 -0.921875 2.90625 -0.921875 C 3.382812 -0.921875 3.742188 -0.992188 3.984375 -1.140625 C 4.222656 -1.296875 4.34375 -1.503906 4.34375 -1.765625 C 4.34375 -1.953125 4.273438 -2.101562 4.140625 -2.21875 C 4.015625 -2.34375 3.847656 -2.4375 3.640625 -2.5 C 3.429688 -2.570312 3.148438 -2.65625 2.796875 -2.75 C 2.296875 -2.863281 1.890625 -2.976562 1.578125 -3.09375 C 1.273438 -3.21875 1.015625 -3.40625 0.796875 -3.65625 C 0.578125 -3.90625 0.46875 -4.242188 0.46875 -4.671875 C 0.46875 -5.035156 0.5625 -5.363281 0.75 -5.65625 C 0.945312 -5.945312 1.242188 -6.179688 1.640625 -6.359375 C 2.035156 -6.535156 2.519531 -6.625 3.09375 -6.625 C 3.488281 -6.625 3.878906 -6.570312 4.265625 -6.46875 C 4.648438 -6.375 4.984375 -6.234375 5.265625 -6.046875 L 4.890625 -5.109375 C 4.597656 -5.273438 4.296875 -5.398438 3.984375 -5.484375 C 3.679688 -5.566406 3.382812 -5.609375 3.09375 -5.609375 C 2.613281 -5.609375 2.253906 -5.523438 2.015625 -5.359375 C 1.785156 -5.203125 1.671875 -4.992188 1.671875 -4.734375 C 1.671875 -4.546875 1.738281 -4.390625 1.875 -4.265625 C 2.007812 -4.148438 2.175781 -4.054688 2.375 -3.984375 C 2.582031 -3.921875 2.863281 -3.847656 3.21875 -3.765625 C 3.707031 -3.648438 4.101562 -3.53125 4.40625 -3.40625 C 4.71875 -3.289062 4.984375 -3.109375 5.203125 -2.859375 C 5.429688 -2.609375 5.546875 -2.269531 5.546875 -1.84375 C 5.546875 -1.488281 5.445312 -1.160156 5.25 -0.859375 C 5.050781 -0.566406 4.753906 -0.332031 4.359375 -0.15625 C 3.960938 0.0078125 3.476562 0.09375 2.90625 0.09375 Z M 2.90625 0.09375" transform="translate(151.81 190.735)"/>
      </g>
    </g>
  </g>
  <g fill="#008037" transform="matrix(1, 0, 0, 1, -17.138939, -130.255936)">
    <g>
      <g>
        <path d="M 3.921875 0.09375 C 3.253906 0.09375 2.65625 -0.0507812 2.125 -0.34375 C 1.59375 -0.632812 1.171875 -1.035156 0.859375 -1.546875 C 0.554688 -2.054688 0.40625 -2.628906 0.40625 -3.265625 C 0.40625 -3.898438 0.554688 -4.472656 0.859375 -4.984375 C 1.171875 -5.492188 1.59375 -5.894531 2.125 -6.1875 C 2.65625 -6.476562 3.253906 -6.625 3.921875 -6.625 C 4.585938 -6.625 5.1875 -6.476562 5.71875 -6.1875 C 6.257812 -5.894531 6.679688 -5.492188 6.984375 -4.984375 C 7.285156 -4.472656 7.4375 -3.898438 7.4375 -3.265625 C 7.4375 -2.617188 7.285156 -2.039062 6.984375 -1.53125 C 6.679688 -1.03125 6.257812 -0.632812 5.71875 -0.34375 C 5.1875 -0.0507812 4.585938 0.09375 3.921875 0.09375 Z M 3.921875 -0.96875 C 4.359375 -0.96875 4.75 -1.066406 5.09375 -1.265625 C 5.445312 -1.460938 5.722656 -1.734375 5.921875 -2.078125 C 6.117188 -2.429688 6.21875 -2.828125 6.21875 -3.265625 C 6.21875 -3.703125 6.117188 -4.09375 5.921875 -4.4375 C 5.722656 -4.789062 5.445312 -5.066406 5.09375 -5.265625 C 4.75 -5.460938 4.359375 -5.5625 3.921875 -5.5625 C 3.492188 -5.5625 3.101562 -5.460938 2.75 -5.265625 C 2.40625 -5.066406 2.128906 -4.789062 1.921875 -4.4375 C 1.722656 -4.09375 1.625 -3.703125 1.625 -3.265625 C 1.625 -2.828125 1.722656 -2.429688 1.921875 -2.078125 C 2.128906 -1.734375 2.40625 -1.460938 2.75 -1.265625 C 3.101562 -1.066406 3.492188 -0.96875 3.921875 -0.96875 Z M 3.921875 -0.96875" transform="translate(159.534 190.735)"/>
      </g>
    </g>
  </g>
  <g fill="#008037" transform="matrix(1, 0, 0, 1, -17.138939, -130.255936)">
    <g>
      <g>
        <path d="M 0.875 -6.53125 L 2.09375 -6.53125 L 2.09375 -1.03125 L 5.5 -1.03125 L 5.5 0 L 0.875 0 Z M 0.875 -6.53125" transform="translate(169.243 190.735)"/>
      </g>
    </g>
  </g>
  <g fill="#008037" transform="matrix(1, 0, 0, 1, -17.138939, -130.255936)">
    <g>
      <g>
        <path d="M 3.6875 0.09375 C 2.78125 0.09375 2.078125 -0.15625 1.578125 -0.65625 C 1.078125 -1.164062 0.828125 -1.894531 0.828125 -2.84375 L 0.828125 -6.53125 L 2.03125 -6.53125 L 2.03125 -2.890625 C 2.03125 -1.609375 2.582031 -0.96875 3.6875 -0.96875 C 4.789062 -0.96875 5.34375 -1.609375 5.34375 -2.890625 L 5.34375 -6.53125 L 6.53125 -6.53125 L 6.53125 -2.84375 C 6.53125 -1.894531 6.28125 -1.164062 5.78125 -0.65625 C 5.28125 -0.15625 4.582031 0.09375 3.6875 0.09375 Z M 3.6875 0.09375" transform="translate(176.688 190.735)"/>
      </g>
    </g>
  </g>
  <g fill="#008037" transform="matrix(1, 0, 0, 1, -17.138939, -130.255936)">
    <g>
      <g>
        <path d="M 2.203125 -5.5 L 0.03125 -5.5 L 0.03125 -6.53125 L 5.578125 -6.53125 L 5.578125 -5.5 L 3.421875 -5.5 L 3.421875 0 L 2.203125 0 Z M 2.203125 -5.5" transform="translate(185.902 190.735)"/>
      </g>
    </g>
  </g>
  <g fill="#008037" transform="matrix(1, 0, 0, 1, -17.138939, -130.255936)">
    <g>
      <g>
        <path d="M 0.875 -6.53125 L 2.09375 -6.53125 L 2.09375 0 L 0.875 0 Z M 0.875 -6.53125" transform="translate(193.375 190.735)"/>
      </g>
    </g>
  </g>
  <g fill="#008037" transform="matrix(1, 0, 0, 1, -17.138939, -130.255936)">
    <g>
      <g>
        <path d="M 3.921875 0.09375 C 3.253906 0.09375 2.65625 -0.0507812 2.125 -0.34375 C 1.59375 -0.632812 1.171875 -1.035156 0.859375 -1.546875 C 0.554688 -2.054688 0.40625 -2.628906 0.40625 -3.265625 C 0.40625 -3.898438 0.554688 -4.472656 0.859375 -4.984375 C 1.171875 -5.492188 1.59375 -5.894531 2.125 -6.1875 C 2.65625 -6.476562 3.253906 -6.625 3.921875 -6.625 C 4.585938 -6.625 5.1875 -6.476562 5.71875 -6.1875 C 6.257812 -5.894531 6.679688 -5.492188 6.984375 -4.984375 C 7.285156 -4.472656 7.4375 -3.898438 7.4375 -3.265625 C 7.4375 -2.617188 7.285156 -2.039062 6.984375 -1.53125 C 6.679688 -1.03125 6.257812 -0.632812 5.71875 -0.34375 C 5.1875 -0.0507812 4.585938 0.09375 3.921875 0.09375 Z M 3.921875 -0.96875 C 4.359375 -0.96875 4.75 -1.066406 5.09375 -1.265625 C 5.445312 -1.460938 5.722656 -1.734375 5.921875 -2.078125 C 6.117188 -2.429688 6.21875 -2.828125 6.21875 -3.265625 C 6.21875 -3.703125 6.117188 -4.09375 5.921875 -4.4375 C 5.722656 -4.789062 5.445312 -5.066406 5.09375 -5.265625 C 4.75 -5.460938 4.359375 -5.5625 3.921875 -5.5625 C 3.492188 -5.5625 3.101562 -5.460938 2.75 -5.265625 C 2.40625 -5.066406 2.128906 -4.789062 1.921875 -4.4375 C 1.722656 -4.09375 1.625 -3.703125 1.625 -3.265625 C 1.625 -2.828125 1.722656 -2.429688 1.921875 -2.078125 C 2.128906 -1.734375 2.40625 -1.460938 2.75 -1.265625 C 3.101562 -1.066406 3.492188 -0.96875 3.921875 -0.96875 Z M 3.921875 -0.96875" transform="translate(198.212 190.735)"/>
      </g>
    </g>
  </g>
  <g fill="#008037" transform="matrix(1, 0, 0, 1, -17.138939, -130.255936)">
    <g>
      <g>
        <path d="M 6.671875 -6.53125 L 6.671875 0 L 5.6875 0 L 2.078125 -4.421875 L 2.078125 0 L 0.875 0 L 0.875 -6.53125 L 1.875 -6.53125 L 5.46875 -2.109375 L 5.46875 -6.53125 Z M 6.671875 -6.53125" transform="translate(207.92 190.735)"/>
      </g>
    </g>
  </g>
  <g fill="#008037" transform="matrix(1, 0, 0, 1, -17.138939, -130.255936)">
    <g>
      <g>
        <path d="M 2.90625 0.09375 C 2.394531 0.09375 1.90625 0.0234375 1.4375 -0.109375 C 0.96875 -0.253906 0.597656 -0.445312 0.328125 -0.6875 L 0.75 -1.625 C 1.007812 -1.414062 1.332031 -1.242188 1.71875 -1.109375 C 2.113281 -0.984375 2.507812 -0.921875 2.90625 -0.921875 C 3.382812 -0.921875 3.742188 -0.992188 3.984375 -1.140625 C 4.222656 -1.296875 4.34375 -1.503906 4.34375 -1.765625 C 4.34375 -1.953125 4.273438 -2.101562 4.140625 -2.21875 C 4.015625 -2.34375 3.847656 -2.4375 3.640625 -2.5 C 3.429688 -2.570312 3.148438 -2.65625 2.796875 -2.75 C 2.296875 -2.863281 1.890625 -2.976562 1.578125 -3.09375 C 1.273438 -3.21875 1.015625 -3.40625 0.796875 -3.65625 C 0.578125 -3.90625 0.46875 -4.242188 0.46875 -4.671875 C 0.46875 -5.035156 0.5625 -5.363281 0.75 -5.65625 C 0.945312 -5.945312 1.242188 -6.179688 1.640625 -6.359375 C 2.035156 -6.535156 2.519531 -6.625 3.09375 -6.625 C 3.488281 -6.625 3.878906 -6.570312 4.265625 -6.46875 C 4.648438 -6.375 4.984375 -6.234375 5.265625 -6.046875 L 4.890625 -5.109375 C 4.597656 -5.273438 4.296875 -5.398438 3.984375 -5.484375 C 3.679688 -5.566406 3.382812 -5.609375 3.09375 -5.609375 C 2.613281 -5.609375 2.253906 -5.523438 2.015625 -5.359375 C 1.785156 -5.203125 1.671875 -4.992188 1.671875 -4.734375 C 1.671875 -4.546875 1.738281 -4.390625 1.875 -4.265625 C 2.007812 -4.148438 2.175781 -4.054688 2.375 -3.984375 C 2.582031 -3.921875 2.863281 -3.847656 3.21875 -3.765625 C 3.707031 -3.648438 4.101562 -3.53125 4.40625 -3.40625 C 4.71875 -3.289062 4.984375 -3.109375 5.203125 -2.859375 C 5.429688 -2.609375 5.546875 -2.269531 5.546875 -1.84375 C 5.546875 -1.488281 5.445312 -1.160156 5.25 -0.859375 C 5.050781 -0.566406 4.753906 -0.332031 4.359375 -0.15625 C 3.960938 0.0078125 3.476562 0.09375 2.90625 0.09375 Z M 2.90625 0.09375" transform="translate(217.33 190.735)"/>
      </g>
    </g>
  </g>
</svg>